<?xml version="1.0" encoding="UTF-8" ?>
<!DOCTYPE svg PUBLIC "-//W3C//DTD SVG 1.1//EN" "http://www.w3.org/Graphics/SVG/1.1/DTD/svg11.dtd">
<svg width="268pt" height="226pt" viewBox="0 0 268 226" version="1.1" xmlns="http://www.w3.org/2000/svg">
<path fill="#ffffff" d=" M 0.00 0.00 L 268.00 0.00 L 268.00 226.00 L 0.00 226.00 L 0.00 0.00 Z" />
<path fill="#f78536" d=" M 127.17 33.60 C 130.47 33.57 133.77 33.57 137.08 33.56 C 137.42 36.30 137.72 39.06 138.01 41.81 C 139.49 42.23 140.97 42.66 142.45 43.10 C 144.00 40.78 145.56 38.48 147.11 36.17 C 150.08 37.90 153.03 39.64 156.00 41.36 C 154.78 43.83 153.59 46.30 152.41 48.79 C 153.51 49.91 154.62 51.04 155.73 52.17 C 158.23 50.97 160.75 49.80 163.27 48.63 C 164.92 51.58 166.63 54.50 168.35 57.41 C 165.71 59.39 161.99 60.75 161.43 64.45 C 153.16 64.70 144.90 64.05 136.63 63.96 C 133.44 60.19 129.70 56.64 124.92 55.04 C 115.45 51.66 105.09 53.93 96.01 57.45 C 97.68 54.51 99.35 51.56 101.06 48.63 C 103.53 49.80 106.00 50.97 108.47 52.17 C 109.59 51.02 110.72 49.88 111.86 48.74 C 110.66 46.28 109.47 43.81 108.28 41.35 C 111.23 39.63 114.17 37.90 117.13 36.18 C 118.70 38.51 120.28 40.82 121.88 43.13 C 123.34 42.67 124.79 42.22 126.25 41.77 C 126.56 39.04 126.87 36.32 127.17 33.60 Z" />
<path fill="#dfebed" d=" M 167.41 48.34 C 170.06 49.83 172.70 51.35 175.33 52.89 C 174.22 55.47 173.12 58.04 172.02 60.62 C 173.12 61.69 174.22 62.76 175.33 63.83 C 177.84 62.71 180.35 61.59 182.86 60.46 C 184.56 63.23 186.22 66.03 187.82 68.85 C 185.59 70.42 183.37 71.98 181.15 73.55 C 181.49 75.09 181.82 76.63 182.16 78.17 C 184.95 78.53 187.73 78.89 190.52 79.25 C 190.51 82.43 190.51 85.60 190.51 88.78 C 187.70 89.13 184.89 89.48 182.08 89.83 C 181.75 91.38 181.42 92.93 181.09 94.48 C 183.30 96.04 185.51 97.60 187.73 99.17 C 186.14 101.98 184.52 104.76 182.87 107.54 C 180.32 106.42 177.76 105.31 175.21 104.19 C 174.13 105.24 173.04 106.29 171.95 107.33 C 173.03 109.94 174.11 112.54 175.19 115.14 C 172.50 116.77 169.79 118.37 167.05 119.93 C 164.96 117.18 162.68 114.57 160.10 112.28 C 160.05 104.61 159.81 96.89 160.57 89.26 C 162.87 85.44 166.95 82.87 168.63 78.59 C 173.22 68.95 170.61 57.97 167.41 48.34 Z" />
<path fill="#2b4450" d=" M 97.01 61.01 C 99.87 59.30 102.76 57.64 105.64 55.97 C 107.72 58.38 108.72 62.85 112.55 62.75 C 112.62 70.98 112.26 79.19 112.22 87.41 C 107.69 91.07 103.79 95.76 102.41 101.54 C 100.10 110.41 102.15 119.74 105.53 128.06 C 102.73 126.38 99.90 124.74 97.07 123.13 C 98.21 120.64 99.39 118.18 100.62 115.73 C 99.42 114.54 98.23 113.34 97.04 112.13 C 94.58 113.35 92.11 114.54 89.62 115.70 C 87.97 112.83 86.32 109.97 84.67 107.11 C 86.92 105.56 89.18 104.04 91.47 102.54 C 91.05 100.92 90.63 99.30 90.22 97.69 C 87.48 97.46 84.74 97.23 82.00 96.99 C 82.00 93.68 82.00 90.38 82.00 87.07 C 84.74 86.86 87.48 86.63 90.23 86.42 C 90.64 84.80 91.06 83.18 91.48 81.57 C 89.19 80.05 86.91 78.51 84.65 76.94 C 86.33 74.08 88.00 71.22 89.67 68.35 C 92.14 69.58 94.63 70.79 97.14 71.96 C 98.29 70.77 99.45 69.60 100.62 68.44 C 99.45 65.94 98.24 63.47 97.01 61.01 Z" />
<path fill="#497285" d=" M 111.01 111.75 C 119.21 111.63 127.39 112.14 135.59 112.02 C 139.42 116.87 144.61 120.82 150.74 122.15 C 159.35 124.08 168.22 121.94 176.27 118.82 C 174.58 121.62 172.95 124.45 171.33 127.28 C 168.87 126.06 166.40 124.87 163.93 123.70 C 162.75 124.87 161.58 126.05 160.41 127.23 C 161.58 129.71 162.75 132.19 163.94 134.66 C 161.08 136.31 158.23 137.98 155.37 139.62 C 153.81 137.35 152.25 135.08 150.69 132.81 C 149.11 133.24 147.53 133.65 145.95 134.07 C 145.73 136.80 145.50 139.52 145.28 142.25 C 141.93 142.25 138.59 142.25 135.25 142.26 C 135.03 139.53 134.84 136.81 134.67 134.08 C 133.06 133.67 131.44 133.26 129.83 132.83 C 128.28 135.10 126.75 137.37 125.18 139.63 C 122.31 137.96 119.44 136.28 116.57 134.60 C 117.79 132.14 119.00 129.68 120.19 127.20 C 118.99 126.04 117.80 124.88 116.61 123.71 C 114.13 124.88 111.65 126.05 109.18 127.24 C 107.53 124.36 105.87 121.49 104.22 118.62 C 106.68 116.59 110.99 115.58 111.01 111.75 Z" />
<path fill="#f78536" d=" M 195.31 140.32 C 199.11 138.95 200.93 145.29 196.97 146.24 C 193.28 147.23 191.63 141.30 195.31 140.32 Z" />
<path fill="#f78536" d=" M 152.76 140.87 C 154.37 140.88 155.99 140.88 157.61 140.88 C 157.61 151.59 157.60 162.29 157.61 173.00 C 155.99 173.00 154.37 173.00 152.76 173.00 C 152.76 162.29 152.75 151.58 152.76 140.87 Z" />
<path fill="#f78536" d=" M 52.20 142.75 C 58.88 142.99 66.06 141.75 72.28 144.82 C 82.34 149.81 81.78 167.09 71.36 171.35 C 65.29 173.80 58.57 172.80 52.20 172.99 C 52.20 162.91 52.20 152.83 52.20 142.75 Z" />
<path fill="#f78536" d=" M 86.20 142.74 C 87.90 142.74 89.60 142.74 91.31 142.74 C 91.31 152.83 91.31 162.91 91.31 173.00 C 89.60 173.00 87.90 173.00 86.20 173.00 C 86.20 162.91 86.20 152.83 86.20 142.74 Z" />
<path fill="#f78536" d=" M 95.16 142.75 C 97.02 142.74 98.88 142.74 100.74 142.74 C 103.49 147.32 106.22 151.91 109.03 156.44 C 111.79 151.88 114.52 147.31 117.27 142.74 C 119.13 142.74 120.99 142.74 122.85 142.74 C 119.69 147.95 116.46 153.10 113.27 158.29 C 110.35 162.62 111.99 168.12 111.62 173.00 C 109.88 173.00 108.13 173.00 106.39 173.00 C 106.19 168.80 107.05 164.42 105.84 160.36 C 102.55 154.33 98.64 148.66 95.16 142.75 Z" />
<path fill="#ffffff" d=" M 57.31 168.25 C 57.31 161.29 57.29 154.34 57.32 147.38 C 62.08 147.65 67.63 146.95 71.48 150.37 C 75.23 154.34 75.22 161.54 71.35 165.43 C 67.50 168.77 62.03 168.04 57.31 168.25 Z" />
<path fill="#f78536" d=" M 129.01 152.01 C 133.80 148.25 141.41 149.20 145.35 153.76 C 147.64 156.48 147.29 160.28 147.61 163.59 C 141.39 163.66 135.17 163.51 128.95 163.72 C 130.17 165.50 131.14 167.83 133.39 168.54 C 136.78 170.02 140.40 168.45 143.35 166.70 C 144.23 167.71 145.12 168.73 146.01 169.75 C 141.60 173.15 135.28 174.71 130.22 171.80 C 123.15 168.02 122.57 156.65 129.01 152.01 Z" />
<path fill="#f78536" d=" M 164.50 149.97 C 166.14 149.97 167.78 149.97 169.42 149.97 C 169.34 151.22 169.27 152.48 169.19 153.73 C 171.73 151.10 175.16 148.78 179.01 149.84 C 185.48 150.82 189.29 157.96 187.79 164.07 C 186.96 169.16 182.26 173.50 177.00 173.32 C 174.02 173.38 171.62 171.42 169.28 169.85 C 169.37 173.70 169.36 177.55 169.35 181.40 C 167.74 181.40 166.12 181.40 164.50 181.40 C 164.50 170.92 164.50 160.45 164.50 149.97 Z" />
<path fill="#f78536" d=" M 193.76 149.97 C 195.37 149.97 196.99 149.97 198.61 149.97 C 198.61 157.65 198.60 165.32 198.61 173.00 C 196.99 173.00 195.37 173.00 193.76 173.00 C 193.75 165.32 193.75 157.65 193.76 149.97 Z" />
<path fill="#f78536" d=" M 205.50 149.97 C 207.14 149.97 208.78 149.97 210.43 149.97 C 210.34 151.26 210.25 152.55 210.15 153.83 C 212.36 151.83 214.78 149.44 218.02 149.69 C 221.79 149.53 225.60 152.11 226.26 155.94 C 227.22 161.57 226.53 167.32 226.72 173.00 C 225.10 173.00 223.48 173.00 221.86 173.00 C 221.64 167.70 222.49 162.26 221.27 157.05 C 219.54 152.13 211.36 153.69 210.70 158.59 C 209.96 163.35 210.48 168.20 210.36 173.00 C 208.74 173.00 207.12 173.00 205.50 173.00 C 205.50 165.32 205.50 157.65 205.50 149.97 Z" />
<path fill="#ffffff" d=" M 128.93 159.65 C 130.16 155.85 133.81 152.90 137.95 154.01 C 140.92 154.35 141.94 157.35 143.01 159.67 C 138.32 159.86 133.62 159.87 128.93 159.65 Z" />
<path fill="#ffffff" d=" M 173.45 154.51 C 178.23 152.21 183.72 156.88 183.12 161.90 C 183.26 166.66 177.86 170.44 173.47 168.41 C 167.94 166.00 168.03 157.00 173.45 154.51 Z" />
</svg>
